<svg width="38" height="25" viewBox="0 0 38 25" fill="none" xmlns="http://www.w3.org/2000/svg">
<g clip-path="url(#clip0_3960_18)">
<path d="M34.33 23.824C33.802 22.646 33.302 20.318 33.356 19.295C33.403 18.421 33.867 17.538 34.338 16.709C36.278 13.299 36.326 10.95 36.089 8.921C35.592 4.651 32.411 1.85 27.789 1.611C24.9 1.462 22.156 2.402 20.456 4.128C19.8136 4.77748 19.3194 5.55837 19.0075 6.417C18.6956 7.27562 18.5733 8.19161 18.649 9.102C18.664 9.334 18.709 9.602 18.754 9.885C18.828 10.262 18.87 10.645 18.877 11.028C18.86 11.834 18.233 12.778 17.729 13.536C17.46 13.94 17.156 14.398 17.138 14.577C17.118 14.761 17.231 14.86 17.629 15.107C18.057 15.327 18.41 15.669 18.643 16.092C18.893 16.534 18.92 17.252 18.937 17.682L18.939 17.729V18.034C18.932 18.858 18.927 19.568 19.363 19.992C19.728 20.347 20.401 20.5 21.418 20.458C21.557 20.453 21.688 20.445 21.815 20.438C22.653 20.389 23.375 20.347 23.992 21.029C24.364 21.439 24.586 22.487 24.802 23.616L24.807 23.646C24.8159 23.6849 24.8168 23.7251 24.8098 23.7643C24.8027 23.8035 24.7879 23.8409 24.7661 23.8743C24.7443 23.9077 24.716 23.9363 24.6829 23.9585C24.6498 23.9807 24.6126 23.996 24.5735 24.0035C24.5343 24.011 24.4941 24.0106 24.4551 24.0022C24.4162 23.9939 24.3793 23.9778 24.3467 23.9549C24.3141 23.932 24.2864 23.9027 24.2654 23.8689C24.2443 23.8351 24.2302 23.7974 24.224 23.758L24.218 23.728C24.088 23.037 23.842 21.75 23.553 21.43C23.126 20.959 22.617 20.988 21.849 21.033C21.719 21.04 21.583 21.048 21.441 21.054C20.254 21.102 19.438 20.895 18.95 20.421C18.33 19.82 18.337 18.911 18.344 18.031L18.345 17.741L18.343 17.705C18.33 17.355 18.303 16.702 18.116 16.368C17.9302 16.0428 17.6517 15.7803 17.316 15.614C16.927 15.373 16.486 15.099 16.546 14.516C16.58 14.189 16.869 13.756 17.234 13.206C17.695 12.511 18.269 11.648 18.284 11.016C18.2742 10.6687 18.2353 10.3228 18.168 9.982C18.1176 9.70323 18.0802 9.42226 18.056 9.14C17.9741 8.14584 18.1084 7.14574 18.4497 6.20841C18.7909 5.27108 19.3311 4.41875 20.033 3.71C21.85 1.863 24.763 0.856997 27.82 1.015C32.75 1.269 36.145 4.272 36.679 8.851C36.927 10.981 36.879 13.443 34.853 17.004C34.322 17.939 33.985 18.654 33.949 19.326C33.903 20.181 34.342 22.397 34.871 23.578C34.8908 23.6233 34.8991 23.6727 34.8951 23.722C34.8912 23.7712 34.8752 23.8187 34.8485 23.8603C34.8217 23.9018 34.7852 23.9361 34.742 23.9602C34.6989 23.9842 34.6504 23.9972 34.601 23.998C34.544 23.9978 34.4882 23.9813 34.4403 23.9502C34.3924 23.9192 34.3545 23.875 34.331 23.823L34.33 23.824Z" fill="white" stroke="#091F5B" stroke-width="1.5"/>
<path d="M23.7661 11.619C24.5945 11.619 25.2661 10.9474 25.2661 10.119C25.2661 9.29056 24.5945 8.61899 23.7661 8.61899C22.9377 8.61899 22.2661 9.29056 22.2661 10.119C22.2661 10.9474 22.9377 11.619 23.7661 11.619Z" fill="#091F5B"/>
<path d="M12.0229 6.75601C12.7133 6.75601 13.2729 6.19637 13.2729 5.50601C13.2729 4.81566 12.7133 4.25601 12.0229 4.25601C11.3326 4.25601 10.7729 4.81566 10.7729 5.50601C10.7729 6.19637 11.3326 6.75601 12.0229 6.75601Z" fill="#091F5B"/>
<path d="M6.02295 3.75601C6.71331 3.75601 7.27295 3.19637 7.27295 2.50601C7.27295 1.81566 6.71331 1.25601 6.02295 1.25601C5.33259 1.25601 4.77295 1.81566 4.77295 2.50601C4.77295 3.19637 5.33259 3.75601 6.02295 3.75601Z" fill="#091F5B"/>
<path d="M12.922 17.308H4.594C2.06 17.308 0 15.375 0 13C0 10.628 2.055 8.69801 4.583 8.69301C4.835 8.68901 6.449 8.71001 7.657 9.81401C8.466 10.554 8.876 11.57 8.876 12.834C8.876 13.393 8.393 13.846 7.798 13.846C7.202 13.846 6.719 13.393 6.719 12.835C6.719 12.142 6.532 11.616 6.162 11.272C5.585 10.735 4.688 10.715 4.616 10.714H4.594C3.25 10.715 2.156 11.74 2.156 13C2.156 14.26 3.25 15.286 4.594 15.286H12.922C13.517 15.286 14 15.738 14 16.296C14 16.856 13.517 17.308 12.922 17.308Z" fill="#091F5B"/>
<path d="M7 20H14" stroke="#091F5B" stroke-width="2" stroke-linecap="round"/>
</g>
<defs>
<clipPath id="clip0_3960_18">
<rect width="38" height="25" fill="white"/>
</clipPath>
</defs>
</svg>
