<svg width="25" height="32" viewBox="0 0 25 32" fill="none" xmlns="http://www.w3.org/2000/svg">
<g clip-path="url(#clip0_3978_61)">
<path d="M20.8778 12.334L20.8458 12.308C18.3118 10.262 17.0798 7.193 17.4658 3.887L17.9178 0L14.0298 2.04C9.89882 4.21 7.17782 8.227 6.71982 12.719L2.35682 11.48L2.01682 12.237C0.643822 15.283 -0.0351778 18.208 -0.000177784 20.93C0.0378222 23.899 1.26182 26.683 3.44582 28.77C5.62682 30.853 8.50982 32 11.5658 32H13.4358C19.7758 32 24.9638 27.03 24.9998 20.92C25.0198 17.478 23.7278 14.724 21.0528 12.502L20.8778 12.334ZM12.0328 30.121C9.67282 30.121 7.72882 28.262 7.69882 25.978C7.68682 25.042 7.87882 24.035 8.27182 22.978L11.0138 23.756L11.0248 22.515C11.0418 20.712 11.9768 19.048 13.4978 18.058C13.4902 18.9551 13.6856 19.8424 14.0694 20.6534C14.4531 21.4643 15.0153 22.178 15.7138 22.741L15.7698 22.796L15.8238 22.844C16.8528 23.694 17.3078 24.662 17.3008 25.982C17.2878 28.264 15.3438 30.121 12.9678 30.121H12.0328ZM18.5468 28.701C18.9919 27.8674 19.2274 26.938 19.2328 25.993C19.2428 24.131 18.5468 22.639 17.1028 21.435L17.0128 21.349L16.9808 21.323C15.8248 20.389 15.2858 19.041 15.4618 17.527L15.7928 14.69L13.0358 16.137C10.9998 17.205 9.60582 19.114 9.20882 21.286L7.15682 20.703L6.81682 21.459C6.10182 23.045 5.74882 24.573 5.76682 26.001C5.77982 26.948 6.01482 27.861 6.44682 28.681C3.77482 27.045 1.97482 24.171 1.93282 20.907C1.90482 18.677 2.41782 16.273 3.45882 13.75L8.57282 15.202L8.58482 13.961C8.62482 9.667 11.0628 5.733 14.9478 3.695L15.5818 3.362L15.5458 3.675C15.0868 7.608 16.5558 11.269 19.5788 13.727L19.7198 13.863L19.7738 13.911C22.0378 15.781 23.0838 18.005 23.0678 20.911C23.0478 24.186 21.2438 27.068 18.5468 28.701Z" fill="#091F5B"/>
</g>
<defs>
<clipPath id="clip0_3978_61">
<rect width="25" height="32" fill="white"/>
</clipPath>
</defs>
</svg>
