<svg width="35" height="28" viewBox="0 0 35 28" fill="none" xmlns="http://www.w3.org/2000/svg">
<path d="M24.958 15H9.95801C8.30115 15 6.95801 16.3431 6.95801 18V24C6.95801 25.6569 8.30115 27 9.95801 27H24.958C26.6149 27 27.958 25.6569 27.958 24V18C27.958 16.3431 26.6149 15 24.958 15Z" stroke="#091F5B" stroke-width="2"/>
<path d="M16.958 11C19.7194 11 21.958 8.76142 21.958 6C21.958 3.23858 19.7194 1 16.958 1C14.1966 1 11.958 3.23858 11.958 6C11.958 8.76142 14.1966 11 16.958 11Z" stroke="#091F5B" stroke-width="2"/>
<path d="M4.543 10.083C6.49975 10.083 8.086 8.49675 8.086 6.54001C8.086 4.58326 6.49975 2.99701 4.543 2.99701C2.58626 2.99701 1 4.58326 1 6.54001C1 8.49675 2.58626 10.083 4.543 10.083Z" stroke="#091F5B" stroke-width="2"/>
<path d="M29.502 10.083C31.4587 10.083 33.045 8.49675 33.045 6.54001C33.045 4.58326 31.4587 2.99701 29.502 2.99701C27.5452 2.99701 25.959 4.58326 25.959 6.54001C25.959 8.49675 27.5452 10.083 29.502 10.083Z" stroke="#091F5B" stroke-width="2"/>
<path d="M8.45801 6.5H11.458M22.458 6.5H25.458M17.458 11V14M17.458 15V18M9.95801 15L11.458 18M24.958 15L23.458 18M19.958 22L18.458 27" stroke="#091F5B" stroke-width="2" stroke-linecap="round"/>
</svg>
