<svg width="52" height="52" viewBox="0 0 52 52" fill="none" xmlns="http://www.w3.org/2000/svg">
<path d="M42.33 37.568C41.802 36.39 41.302 34.062 41.356 33.039C41.403 32.165 41.867 31.282 42.338 30.453C44.278 27.043 44.326 24.694 44.089 22.665C43.592 18.395 40.411 15.594 35.789 15.355C32.9 15.205 30.156 16.146 28.456 17.872C27.8136 18.5215 27.3194 19.3024 27.0075 20.161C26.6956 21.0196 26.5733 21.9356 26.649 22.846C26.664 23.078 26.709 23.346 26.754 23.629C26.828 24.005 26.87 24.388 26.877 24.772C26.86 25.578 26.233 26.522 25.729 27.28C25.46 27.684 25.156 28.142 25.138 28.321C25.118 28.505 25.231 28.604 25.629 28.851C26.057 29.071 26.41 29.413 26.643 29.836C26.893 30.278 26.92 30.996 26.937 31.425L26.939 31.473V31.778C26.932 32.602 26.927 33.312 27.363 33.736C27.728 34.091 28.401 34.244 29.418 34.202C29.557 34.196 29.688 34.189 29.815 34.182C30.653 34.133 31.375 34.091 31.992 34.773C32.364 35.183 32.586 36.231 32.802 37.36L32.807 37.39C32.8159 37.4288 32.8168 37.4691 32.8098 37.5083C32.8027 37.5475 32.7879 37.5849 32.7661 37.6183C32.7443 37.6516 32.716 37.6803 32.6829 37.7025C32.6498 37.7247 32.6126 37.74 32.5735 37.7475C32.5343 37.755 32.4941 37.7546 32.4551 37.7462C32.4162 37.7379 32.3793 37.7218 32.3467 37.6989C32.3141 37.6759 32.2864 37.6467 32.2654 37.6129C32.2443 37.5791 32.2302 37.5414 32.224 37.502L32.218 37.472C32.088 36.781 31.842 35.494 31.553 35.174C31.126 34.702 30.617 34.732 29.849 34.777C29.719 34.784 29.583 34.792 29.441 34.798C28.254 34.846 27.438 34.639 26.95 34.165C26.33 33.563 26.337 32.655 26.344 31.774L26.345 31.486L26.343 31.448C26.33 31.098 26.303 30.446 26.116 30.112C25.9302 29.7868 25.6517 29.5243 25.316 29.358C24.927 29.117 24.486 28.843 24.546 28.26C24.58 27.933 24.869 27.499 25.234 26.95C25.695 26.255 26.269 25.392 26.284 24.76C26.2742 24.4127 26.2353 24.0668 26.168 23.726C26.1176 23.4472 26.0802 23.1663 26.056 22.884C25.974 21.8897 26.1082 20.8894 26.4494 19.9519C26.7907 19.0144 27.331 18.1619 28.033 17.453C29.85 15.608 32.763 14.602 35.82 14.76C40.75 15.014 44.145 18.017 44.679 22.595C44.927 24.725 44.879 27.188 42.853 30.749C42.322 31.684 41.985 32.399 41.949 33.071C41.903 33.926 42.342 36.142 42.871 37.323C42.8908 37.3683 42.8991 37.4177 42.8951 37.467C42.8912 37.5162 42.8752 37.5637 42.8485 37.6053C42.8217 37.6468 42.7852 37.6811 42.742 37.7052C42.6989 37.7292 42.6504 37.7422 42.601 37.743C42.544 37.7428 42.4882 37.7263 42.4403 37.6952C42.3924 37.6642 42.3535 37.62 42.33 37.568Z" fill="white" stroke="white" stroke-width="1.5"/>
<path d="M31.7661 25.363C32.5945 25.363 33.2661 24.6914 33.2661 23.863C33.2661 23.0346 32.5945 22.363 31.7661 22.363C30.9377 22.363 30.2661 23.0346 30.2661 23.863C30.2661 24.6914 30.9377 25.363 31.7661 25.363Z" fill="white"/>
<path d="M20.0229 20.5C20.7133 20.5 21.2729 19.9404 21.2729 19.25C21.2729 18.5596 20.7133 18 20.0229 18C19.3326 18 18.7729 18.5596 18.7729 19.25C18.7729 19.9404 19.3326 20.5 20.0229 20.5Z" fill="white"/>
<path d="M21.0229 40.5C21.7133 40.5 22.2729 39.9404 22.2729 39.25C22.2729 38.5596 21.7133 38 21.0229 38C20.3326 38 19.7729 38.5596 19.7729 39.25C19.7729 39.9404 20.3326 40.5 21.0229 40.5Z" fill="white"/>
<path d="M13.0229 38.5C13.7133 38.5 14.2729 37.9404 14.2729 37.25C14.2729 36.5596 13.7133 36 13.0229 36C12.3326 36 11.7729 36.5596 11.7729 37.25C11.7729 37.9404 12.3326 38.5 13.0229 38.5Z" fill="white"/>
<path d="M14.0229 17.5C14.7133 17.5 15.2729 16.9404 15.2729 16.25C15.2729 15.5596 14.7133 15 14.0229 15C13.3326 15 12.7729 15.5596 12.7729 16.25C12.7729 16.9404 13.3326 17.5 14.0229 17.5Z" fill="white"/>
<path d="M20.0229 13.5C20.7133 13.5 21.2729 12.9404 21.2729 12.25C21.2729 11.5596 20.7133 11 20.0229 11C19.3326 11 18.7729 11.5596 18.7729 12.25C18.7729 12.9404 19.3326 13.5 20.0229 13.5Z" fill="white"/>
<path d="M20.922 31.052H12.594C10.06 31.052 8 29.119 8 26.744C8 24.372 10.055 22.442 12.583 22.436C12.835 22.433 14.449 22.454 15.657 23.558C16.466 24.298 16.876 25.314 16.876 26.578C16.876 27.137 16.393 27.589 15.798 27.589C15.202 27.589 14.719 27.137 14.719 26.579C14.719 25.886 14.532 25.359 14.162 25.015C13.585 24.478 12.688 24.459 12.616 24.458H12.594C11.25 24.458 10.156 25.484 10.156 26.744C10.156 28.004 11.25 29.029 12.594 29.029H20.922C21.517 29.029 22 29.482 22 30.041C22 30.599 21.517 31.052 20.922 31.052Z" fill="white"/>
<path d="M15 33.744H22" stroke="white" stroke-width="2" stroke-linecap="round"/>
</svg>
