<svg width="52" height="52" viewBox="0 0 52 52" fill="none" xmlns="http://www.w3.org/2000/svg">
<g clip-path="url(#clip0_3944_48)">
<path d="M33.8778 22.334L33.8458 22.308C31.3118 20.262 30.0798 17.193 30.4658 13.887L30.9178 10L27.0298 12.04C22.8988 14.21 20.1778 18.227 19.7198 22.719L15.3568 21.48L15.0168 22.237C13.6438 25.283 12.9648 28.208 12.9998 30.93C13.0378 33.899 14.2618 36.683 16.4458 38.77C18.6268 40.853 21.5098 42 24.5658 42H26.4358C32.7758 42 37.9638 37.03 37.9998 30.92C38.0198 27.478 36.7278 24.724 34.0528 22.502L33.8778 22.334ZM25.0328 40.121C22.6728 40.121 20.7288 38.262 20.6988 35.978C20.6868 35.042 20.8788 34.035 21.2718 32.978L24.0138 33.756L24.0248 32.515C24.0418 30.712 24.9768 29.048 26.4978 28.058C26.4902 28.9551 26.6856 29.8424 27.0694 30.6534C27.4531 31.4643 28.0153 32.178 28.7138 32.741L28.7698 32.796L28.8238 32.844C29.8528 33.694 30.3078 34.662 30.3008 35.982C30.2878 38.264 28.3438 40.121 25.9678 40.121H25.0328ZM31.5468 38.701C31.9919 37.8674 32.2274 36.938 32.2328 35.993C32.2428 34.131 31.5468 32.639 30.1028 31.435L30.0128 31.349L29.9808 31.323C28.8248 30.389 28.2858 29.041 28.4618 27.527L28.7928 24.69L26.0358 26.137C23.9998 27.205 22.6058 29.114 22.2088 31.286L20.1568 30.703L19.8168 31.459C19.1018 33.045 18.7488 34.573 18.7668 36.001C18.7798 36.948 19.0148 37.861 19.4468 38.681C16.7748 37.045 14.9748 34.171 14.9328 30.907C14.9048 28.677 15.4178 26.273 16.4588 23.75L21.5728 25.202L21.5848 23.961C21.6248 19.667 24.0628 15.733 27.9478 13.695L28.5818 13.362L28.5458 13.675C28.0868 17.608 29.5558 21.269 32.5788 23.727L32.7198 23.863L32.7738 23.911C35.0378 25.781 36.0838 28.005 36.0678 30.911C36.0478 34.186 34.2438 37.068 31.5468 38.701Z" fill="#F98080"/>
</g>
<defs>
<clipPath id="clip0_3944_48">
<rect width="25" height="32" fill="white" transform="translate(13 10)"/>
</clipPath>
</defs>
</svg>
