<svg width="38" height="28" viewBox="0 0 38 28" fill="none" xmlns="http://www.w3.org/2000/svg">
<g opacity="0.4">
<g filter="url(#filter0_d_3972_9)">
<path d="M2.5 16.754V20C2.5 21.0609 2.92143 22.0783 3.67157 22.8284C4.42172 23.5786 5.43913 24 6.5 24H29.5C30.5609 24 31.5783 23.5786 32.3284 22.8284C33.0786 22.0783 33.5 21.0609 33.5 20V16.754C33.5 16.1665 33.3707 15.5863 33.1211 15.0545C32.8715 14.5227 32.5079 14.0524 32.056 13.677L18 2L3.944 13.677C3.49213 14.0524 3.12848 14.5227 2.87891 15.0545C2.62934 15.5863 2.49997 16.1665 2.5 16.754Z" fill="black"/>
</g>
<path d="M2.5 16.754V20C2.5 21.0609 2.92143 22.0783 3.67157 22.8284C4.42172 23.5786 5.43913 24 6.5 24H29.5C30.5609 24 31.5783 23.5786 32.3284 22.8284C33.0786 22.0783 33.5 21.0609 33.5 20V16.754C33.5 16.1665 33.3707 15.5863 33.1211 15.0545C32.8715 14.5227 32.5079 14.0524 32.056 13.677L18 2L3.944 13.677C3.49213 14.0524 3.12848 14.5227 2.87891 15.0545C2.62934 15.5863 2.49997 16.1665 2.5 16.754Z" fill="white"/>
</g>
<path fill-rule="evenodd" clip-rule="evenodd" d="M2.5 16.754V20C2.5 21.0609 2.92143 22.0783 3.67157 22.8284C4.42172 23.5786 5.43913 24 6.5 24H29.5C30.5609 24 31.5783 23.5786 32.3284 22.8284C33.0786 22.0783 33.5 21.0609 33.5 20V16.754C33.5 16.1665 33.3707 15.5863 33.1211 15.0545C32.8715 14.5227 32.5079 14.0524 32.056 13.677L18 2L3.944 13.677C3.49213 14.0524 3.12848 14.5227 2.87891 15.0545C2.62934 15.5863 2.49997 16.1665 2.5 16.754Z" fill="#091F5B" stroke="#344EAD" stroke-linejoin="round"/>
<path d="M13.5171 17.027L17.7721 13.098L22.0271 17.027" stroke="white" stroke-width="1.5" stroke-linecap="round" stroke-linejoin="round"/>
<defs>
<filter id="filter0_d_3972_9" x="-1.5" y="0" width="39" height="30" filterUnits="userSpaceOnUse" color-interpolation-filters="sRGB">
<feFlood flood-opacity="0" result="BackgroundImageFix"/>
<feColorMatrix in="SourceAlpha" type="matrix" values="0 0 0 0 0 0 0 0 0 0 0 0 0 0 0 0 0 0 127 0" result="hardAlpha"/>
<feOffset dy="2"/>
<feGaussianBlur stdDeviation="2"/>
<feColorMatrix type="matrix" values="0 0 0 0 0.203922 0 0 0 0 0.305882 0 0 0 0 0.678431 0 0 0 1 0"/>
<feBlend mode="normal" in2="BackgroundImageFix" result="effect1_dropShadow_3972_9"/>
<feBlend mode="normal" in="SourceGraphic" in2="effect1_dropShadow_3972_9" result="shape"/>
</filter>
</defs>
</svg>
