<svg width="23" height="23" viewBox="0 0 23 23" fill="none" xmlns="http://www.w3.org/2000/svg">
<g clip-path="url(#clip0_3960_15)">
<path d="M15.583 19.9L18.95 20.45C19.3256 20.5116 19.7102 20.4908 20.0769 20.389C20.4437 20.2873 20.784 20.1069 21.0741 19.8605C21.3643 19.6141 21.5974 19.3076 21.7572 18.9622C21.9171 18.6167 21.9999 18.2406 22 17.86V4.28C21.9998 3.65725 21.7783 3.05484 21.3749 2.58039C20.9715 2.10594 20.4126 1.79035 19.798 1.69L15.583 1M15.583 19.9L7.417 22M15.583 19.9V1M7.417 22L3.202 21.31C2.58739 21.2096 2.02848 20.8941 1.6251 20.4196C1.22172 19.9452 1.00016 19.3427 1 18.72V5.14C1.00005 4.75936 1.08289 4.38328 1.24276 4.03783C1.40264 3.69239 1.63573 3.38585 1.92588 3.13947C2.21602 2.89308 2.55628 2.71274 2.92306 2.61096C3.28985 2.50917 3.67438 2.48837 4.05 2.55L7.417 3.1M7.417 22V3.1M7.417 3.1L15.583 1" stroke="#091F5B" stroke-width="2" stroke-linecap="round" stroke-linejoin="round"/>
</g>
<defs>
<clipPath id="clip0_3960_15">
<rect width="23" height="23" fill="white"/>
</clipPath>
</defs>
</svg>
