<svg width="14" height="14" viewBox="0 0 14 14" fill="none" xmlns="http://www.w3.org/2000/svg">
<g clip-path="url(#clip0_3989_7)">
<path fill-rule="evenodd" clip-rule="evenodd" d="M12.935 3.90501L9.16504 0.788008C8.55828 0.279355 7.7918 0.000579834 7.00004 0.000579834C6.20828 0.000579834 5.4418 0.279355 4.83504 0.788008L1.06504 3.90501C0.729508 4.18686 0.460147 4.53914 0.276087 4.93681C0.0920258 5.33449 -0.00222071 5.76781 3.97194e-05 6.20601V11.068C3.97194e-05 12.646 1.21404 14 2.80004 14H4.20004C4.38389 14 4.56594 13.9638 4.7358 13.8934C4.90565 13.8231 5.05999 13.72 5.18999 13.59C5.31999 13.46 5.42311 13.3056 5.49347 13.1358C5.56383 12.9659 5.60004 12.7839 5.60004 12.6V10.323C5.60004 9.43601 6.26604 8.79101 7.00004 8.79101C7.73404 8.79101 8.40004 9.43601 8.40004 10.323V12.6C8.40004 12.7839 8.43625 12.9659 8.50661 13.1358C8.57697 13.3056 8.68009 13.46 8.81009 13.59C8.94009 13.72 9.09443 13.8231 9.26428 13.8934C9.43414 13.9638 9.61619 14 9.80004 14H11.2C12.786 14 14 12.646 14 11.068V6.20601C14 5.31801 13.615 4.46601 12.935 3.90501Z" fill="black"/>
</g>
<defs>
<clipPath id="clip0_3989_7">
<rect width="14" height="14" fill="white"/>
</clipPath>
</defs>
</svg>
