<svg width="52" height="52" viewBox="0 0 52 52" fill="none" xmlns="http://www.w3.org/2000/svg">
<path d="M33.958 27H18.958C17.3012 27 15.958 28.3431 15.958 30V36C15.958 37.6569 17.3012 39 18.958 39H33.958C35.6149 39 36.958 37.6569 36.958 36V30C36.958 28.3431 35.6149 27 33.958 27Z" stroke="white" stroke-width="2"/>
<path d="M25.958 23C28.7194 23 30.958 20.7614 30.958 18C30.958 15.2386 28.7194 13 25.958 13C23.1966 13 20.958 15.2386 20.958 18C20.958 20.7614 23.1966 23 25.958 23Z" stroke="white" stroke-width="2"/>
<path d="M13.543 22.083C15.4997 22.083 17.086 20.4967 17.086 18.54C17.086 16.5832 15.4997 14.997 13.543 14.997C11.5863 14.997 10 16.5832 10 18.54C10 20.4967 11.5863 22.083 13.543 22.083Z" stroke="white" stroke-width="2"/>
<path d="M38.502 22.083C40.4587 22.083 42.045 20.4967 42.045 18.54C42.045 16.5832 40.4587 14.997 38.502 14.997C36.5452 14.997 34.959 16.5832 34.959 18.54C34.959 20.4967 36.5452 22.083 38.502 22.083Z" stroke="white" stroke-width="2"/>
<path d="M17.458 18.5H20.458M31.458 18.5H34.458M26.458 23V26M26.458 27V30M18.958 27L20.458 30M33.958 27L32.458 30M28.958 34L27.458 39" stroke="white" stroke-width="2" stroke-linecap="round"/>
</svg>
