<svg width="52" height="52" viewBox="0 0 52 52" fill="none" xmlns="http://www.w3.org/2000/svg">
<path d="M29.583 33.9L32.95 34.45C33.3256 34.5116 33.7102 34.4908 34.0769 34.389C34.4437 34.2873 34.784 34.1069 35.0741 33.8605C35.3643 33.6141 35.5974 33.3076 35.7572 32.9622C35.9171 32.6167 35.9999 32.2406 36 31.86V18.28C35.9998 17.6573 35.7783 17.0548 35.3749 16.5804C34.9715 16.1059 34.4126 15.7904 33.798 15.69L29.583 15M29.583 33.9L21.417 36M29.583 33.9V15M21.417 36L17.202 35.31C16.5874 35.2096 16.0285 34.8941 15.6251 34.4196C15.2217 33.9452 15.0002 33.3427 15 32.72V19.14C15.0001 18.7594 15.0829 18.3833 15.2428 18.0378C15.4026 17.6924 15.6357 17.3859 15.9259 17.1395C16.216 16.8931 16.5563 16.7127 16.9231 16.611C17.2898 16.5092 17.6744 16.4884 18.05 16.55L21.417 17.1M21.417 36V17.1M21.417 17.1L29.583 15" stroke="white" stroke-width="2" stroke-linecap="round" stroke-linejoin="round"/>
</svg>
