<svg width="57" height="51" viewBox="0 0 57 51" fill="none" xmlns="http://www.w3.org/2000/svg">
<path fill-rule="evenodd" clip-rule="evenodd" d="M21.716 1.56135e-07H52.5C53.5609 1.56135e-07 54.5783 0.421428 55.3284 1.17157C56.0786 1.92172 56.5 2.93913 56.5 4V47C56.5 48.0609 56.0786 49.0783 55.3284 49.8284C54.5783 50.5786 53.5609 51 52.5 51H21.716C21.1054 51.0002 20.503 50.8606 19.9547 50.5919C19.4064 50.3232 18.927 49.9326 18.553 49.45L0 25.5L18.553 1.55C18.927 1.06738 19.4064 0.676767 19.9547 0.408097C20.503 0.139427 21.1054 -0.000170421 21.716 1.56135e-07Z" fill="#091F5B"/>
</svg>
