<svg width="57" height="51" viewBox="0 0 57 51" fill="none" xmlns="http://www.w3.org/2000/svg">
<path fill-rule="evenodd" clip-rule="evenodd" d="M34.784 1.56135e-07H4C2.93913 1.56135e-07 1.92172 0.421428 1.17157 1.17157C0.421427 1.92172 0 2.93913 0 4L0 47C0 48.0609 0.421427 49.0783 1.17157 49.8284C1.92172 50.5786 2.93913 51 4 51H34.784C35.3946 51.0002 35.997 50.8606 36.5453 50.5919C37.0936 50.3232 37.573 49.9326 37.947 49.45L56.5 25.5L37.947 1.55C37.573 1.06738 37.0936 0.676767 36.5453 0.408097C35.997 0.139427 35.3946 -0.000170421 34.784 1.56135e-07Z" fill="#091F5B"/>
</svg>
